<svg xmlns="http://www.w3.org/2000/svg" xmlns:xlink="http://www.w3.org/1999/xlink" xml:lang="en" height="433.6pt" width="1248.14pt" viewBox="-67.9 -409.20000000000005 1248.14 433.6"><polygon points="84.6,-311.4 93.6,-324 102.6,-311.4 " style="stroke:black;fill:none;stroke-width:1.3;stroke-dasharray:-;stroke-linecap:round;stroke-linejoin:round;" /><polygon points="84.6,-336.6 102.6,-336.6 93.6,-324 " style="stroke:black;fill:none;stroke-width:1.3;stroke-dasharray:-;stroke-linecap:round;stroke-linejoin:round;" /><circle cx="901.8" cy="-297" r="4.2" style="stroke:black;fill:none;stroke-width:1.3;stroke-dasharray:-;" /><polygon points="804.6,-322.2 813.6,-334.8 822.6,-322.2 " style="stroke:black;fill:none;stroke-width:1.3;stroke-dasharray:-;stroke-linecap:round;stroke-linejoin:round;" /><polygon points="1020.6,-185.4 1029.6,-198 1038.6,-185.4 " style="stroke:black;fill:none;stroke-width:1.3;stroke-dasharray:-;stroke-linecap:round;stroke-linejoin:round;" /><polygon points="1020.6,-210.6 1038.6,-210.6 1029.6,-198 " style="stroke:black;fill:none;stroke-width:1.3;stroke-dasharray:-;stroke-linecap:round;stroke-linejoin:round;" /><path d="M 0.0,-360.0 L 18,-360 L 18,-369 L 54,-369 L 54,-351 L 18,-351 L 18,-360 M 54,-360 L 72,-360" style="stroke:black;fill:none;stroke-width:1.3;stroke-dasharray:-;stroke-linecap:round;stroke-linejoin:round;" /><path d="M 18.0,-360.0 L 54,-360" style="stroke:black;fill:none;stroke-width:1.3;stroke-dasharray:-;stroke-linecap:round;stroke-linejoin:round;" /><path d="M 72.0,-360.0 L 396,-360 L 720,-360" style="stroke:black;fill:none;stroke-width:1.3;stroke-dasharray:-;stroke-linecap:round;stroke-linejoin:round;" /><path d="M 93.60000000000001,-360.0 L 93.6,-336.6 M 93.6,-311.4 L 93.6,-288" style="stroke:black;fill:none;stroke-width:1.3;stroke-dasharray:-;stroke-linecap:round;stroke-linejoin:round;" /><path d="M 84.60000000000001,-320.40000000000003 L 84.6,-324 L 102.6,-324 L 102.6,-327.6" style="stroke:black;fill:none;stroke-width:1.3;stroke-dasharray:-;stroke-linecap:round;stroke-linejoin:round;" /><path d="M 93.60000000000001,-288.0 L 93.6,-273.6 L 84.6,-273.6 L 102.6,-273.6 M 87.3,-269.28 L 99.9,-269.28 M 91.8,-264.96 L 95.4,-264.96" style="stroke:black;fill:none;stroke-width:1.3;stroke-dasharray:-;stroke-linecap:round;stroke-linejoin:round;" /><path d="M 136.79999999999998,-360.0 L 136.8,-327.24 M 145.8,-327.24 L 127.8,-327.24 M 145.8,-320.76 L 127.8,-320.76 M 136.8,-320.76 L 136.8,-288" style="stroke:black;fill:none;stroke-width:1.3;stroke-dasharray:-;stroke-linecap:round;stroke-linejoin:round;" /><path d="M 136.79999999999998,-288.0 L 136.8,-273.6 L 127.8,-273.6 L 145.8,-273.6 M 130.5,-269.28 L 143.1,-269.28 M 135,-264.96 L 138.6,-264.96" style="stroke:black;fill:none;stroke-width:1.3;stroke-dasharray:-;stroke-linecap:round;stroke-linejoin:round;" /><path d="M 201.6,-75.60000000000002 L 331.2,-75.6 L 331.2,-205.2 L 201.6,-205.2 L 201.6,-75.6" style="stroke:black;fill:none;stroke-width:1.3;stroke-dasharray:-;stroke-linecap:round;stroke-linejoin:round;" /><path d="M 201.6,-183.60000000000002 L 183.6,-183.6" style="stroke:black;fill:none;stroke-width:1.3;stroke-dasharray:-;stroke-linecap:round;stroke-linejoin:round;" /><path d="M 201.6,-154.8 L 183.6,-154.8" style="stroke:black;fill:none;stroke-width:1.3;stroke-dasharray:-;stroke-linecap:round;stroke-linejoin:round;" /><path d="M 201.6,-126.00000000000001 L 183.6,-126" style="stroke:black;fill:none;stroke-width:1.3;stroke-dasharray:-;stroke-linecap:round;stroke-linejoin:round;" /><path d="M 201.6,-97.2 L 183.6,-97.2" style="stroke:black;fill:none;stroke-width:1.3;stroke-dasharray:-;stroke-linecap:round;stroke-linejoin:round;" /><path d="M 331.2,-183.60000000000002 L 349.2,-183.6" style="stroke:black;fill:none;stroke-width:1.3;stroke-dasharray:-;stroke-linecap:round;stroke-linejoin:round;" /><path d="M 331.2,-154.8 L 349.2,-154.8" style="stroke:black;fill:none;stroke-width:1.3;stroke-dasharray:-;stroke-linecap:round;stroke-linejoin:round;" /><path d="M 331.2,-126.00000000000001 L 349.2,-126" style="stroke:black;fill:none;stroke-width:1.3;stroke-dasharray:-;stroke-linecap:round;stroke-linejoin:round;" /><path d="M 331.2,-97.2 L 349.2,-97.2" style="stroke:black;fill:none;stroke-width:1.3;stroke-dasharray:-;stroke-linecap:round;stroke-linejoin:round;" /><path d="M 252.0,-205.20000000000005 L 252,-223.2" style="stroke:black;fill:none;stroke-width:1.3;stroke-dasharray:-;stroke-linecap:round;stroke-linejoin:round;" /><path d="M 280.8,-205.20000000000005 L 280.8,-223.2" style="stroke:black;fill:none;stroke-width:1.3;stroke-dasharray:-;stroke-linecap:round;stroke-linejoin:round;" /><path d="M 266.40000000000003,-75.60000000000002 L 266.4,-57.6" style="stroke:black;fill:none;stroke-width:1.3;stroke-dasharray:-;stroke-linecap:round;stroke-linejoin:round;" /><path d="M 252.0,-360.0 L 252,-331.2 L 261,-328.2 L 243,-322.2 L 261,-316.2 L 243,-310.2 L 261,-304.2 L 243,-298.2 L 252,-295.2 L 252,-266.4" style="stroke:black;fill:none;stroke-width:1.3;stroke-dasharray:-;stroke-linecap:round;stroke-linejoin:round;" /><path d="M 252.0,-266.40000000000003 L 252,-244.8 L 252,-223.2" style="stroke:black;fill:none;stroke-width:1.3;stroke-dasharray:-;stroke-linecap:round;stroke-linejoin:round;" /><path d="M 252.0,-266.40000000000003 L 226.44,-266.4 M 226.44,-257.4 L 226.44,-275.4 M 219.96,-257.4 L 219.96,-275.4 M 219.96,-266.4 L 194.4,-266.4" style="stroke:black;fill:none;stroke-width:1.3;stroke-dasharray:-;stroke-linecap:round;stroke-linejoin:round;" /><path d="M 194.4,-266.40000000000003 L 194.4,-252 L 185.4,-252 L 203.4,-252 M 188.1,-247.68 L 200.7,-247.68 M 192.6,-243.36 L 196.2,-243.36" style="stroke:black;fill:none;stroke-width:1.3;stroke-dasharray:-;stroke-linecap:round;stroke-linejoin:round;" /><path d="M 280.8,-223.20000000000002 L 280.8,-273.6 L 271.8,-276.6 L 289.8,-282.6 L 271.8,-288.6 L 289.8,-294.6 L 271.8,-300.6 L 289.8,-306.6 L 280.8,-309.6 L 280.8,-360" style="stroke:black;fill:none;stroke-width:1.3;stroke-dasharray:-;stroke-linecap:round;stroke-linejoin:round;" /><path d="M 183.6,-183.60000000000002 L 167.4,-183.6 L 151.2,-183.6" style="stroke:black;fill:none;stroke-width:1.3;stroke-dasharray:-;stroke-linecap:round;stroke-linejoin:round;" /><path d="M 183.6,-154.8 L 167.4,-154.8 L 151.2,-154.8" style="stroke:black;fill:none;stroke-width:1.3;stroke-dasharray:-;stroke-linecap:round;stroke-linejoin:round;" /><path d="M 183.6,-126.00000000000001 L 167.4,-126 L 151.2,-126" style="stroke:black;fill:none;stroke-width:1.3;stroke-dasharray:-;stroke-linecap:round;stroke-linejoin:round;" /><path d="M 183.6,-97.2 L 167.4,-97.2 L 151.2,-97.2" style="stroke:black;fill:none;stroke-width:1.3;stroke-dasharray:-;stroke-linecap:round;stroke-linejoin:round;" /><path d="M 266.40000000000003,-57.60000000000002 L 266.4,-52.2 L 266.4,-46.8" style="stroke:black;fill:none;stroke-width:1.3;stroke-dasharray:-;stroke-linecap:round;stroke-linejoin:round;" /><path d="M 266.40000000000003,-46.80000000000002 L 266.4,-32.4 L 257.4,-32.4 L 275.4,-32.4 M 260.1,-28.08 L 272.7,-28.08 M 264.6,-23.76 L 268.2,-23.76" style="stroke:black;fill:none;stroke-width:1.3;stroke-dasharray:-;stroke-linecap:round;stroke-linejoin:round;" /><path d="M 349.2,-183.60000000000002 L 365.4,-183.6 L 381.6,-183.6" style="stroke:black;fill:none;stroke-width:1.3;stroke-dasharray:-;stroke-linecap:round;stroke-linejoin:round;" /><path d="M 349.2,-154.8 L 365.4,-154.8 L 381.6,-154.8" style="stroke:black;fill:none;stroke-width:1.3;stroke-dasharray:-;stroke-linecap:round;stroke-linejoin:round;" /><path d="M 349.2,-126.00000000000001 L 365.4,-126 L 381.6,-126" style="stroke:black;fill:none;stroke-width:1.3;stroke-dasharray:-;stroke-linecap:round;stroke-linejoin:round;" /><path d="M 349.2,-97.2 L 365.4,-97.2 L 381.6,-97.2" style="stroke:black;fill:none;stroke-width:1.3;stroke-dasharray:-;stroke-linecap:round;stroke-linejoin:round;" /><path d="M 504.0,-234.0 L 590.4,-234 L 590.4,-306 L 504,-306 L 504,-234" style="stroke:black;fill:none;stroke-width:1.3;stroke-dasharray:-;stroke-linecap:round;stroke-linejoin:round;" /><path d="M 504.0,-288.0 L 486,-288" style="stroke:black;fill:none;stroke-width:1.3;stroke-dasharray:-;stroke-linecap:round;stroke-linejoin:round;" /><path d="M 504.0,-252.0 L 486,-252" style="stroke:black;fill:none;stroke-width:1.3;stroke-dasharray:-;stroke-linecap:round;stroke-linejoin:round;" /><path d="M 590.4,-288.0 L 608.4,-288" style="stroke:black;fill:none;stroke-width:1.3;stroke-dasharray:-;stroke-linecap:round;stroke-linejoin:round;" /><path d="M 590.4,-252.0 L 608.4,-252" style="stroke:black;fill:none;stroke-width:1.3;stroke-dasharray:-;stroke-linecap:round;stroke-linejoin:round;" /><path d="M 547.1999999999999,-306.0 L 547.2,-324" style="stroke:black;fill:none;stroke-width:1.3;stroke-dasharray:-;stroke-linecap:round;stroke-linejoin:round;" /><path d="M 547.1999999999999,-234.0 L 547.2,-216" style="stroke:black;fill:none;stroke-width:1.3;stroke-dasharray:-;stroke-linecap:round;stroke-linejoin:round;" /><path d="M 453.59999999999997,-360.0 L 453.6,-324 L 453.6,-288" style="stroke:black;fill:none;stroke-width:1.3;stroke-dasharray:-;stroke-linecap:round;stroke-linejoin:round;" /><path d="M 453.59999999999997,-288.0 L 469.8,-288 L 486,-288" style="stroke:black;fill:none;stroke-width:1.3;stroke-dasharray:-;stroke-linecap:round;stroke-linejoin:round;" /><path d="M 608.4,-288.0 L 613.8,-288 L 619.2,-288" style="stroke:black;fill:none;stroke-width:1.3;stroke-dasharray:-;stroke-linecap:round;stroke-linejoin:round;" /><path d="M 619.1999999999999,-288.0 L 637.2,-288 L 637.233,-289.463 L 637.334,-290.964 L 637.504,-292.472 L 637.742,-293.955 L 638.046,-295.382 L 638.414,-296.722 L 638.84,-297.947 L 639.32,-299.033 L 639.845,-299.954 L 640.408,-300.693 L 641,-301.234 L 641.612,-301.565 L 642.234,-301.679 L 642.857,-301.574 L 643.469,-301.252 L 644.063,-300.72 L 644.627,-299.989 L 645.154,-299.075 L 645.635,-297.996 L 646.064,-296.776 L 646.434,-295.44 L 646.741,-294.016 L 646.982,-292.535 L 647.155,-291.027 L 647.259,-289.525 L 647.294,-288.06 L 647.265,-286.663 L 647.174,-285.363 L 647.026,-284.188 L 646.828,-283.162 L 646.588,-282.308 L 646.312,-281.643 L 646.011,-281.181 L 645.693,-280.932 L 645.369,-280.901 L 645.049,-281.089 L 644.742,-281.492 L 644.458,-282.101 L 644.206,-282.904 L 643.995,-283.883 L 643.833,-285.019 L 643.725,-286.286 L 643.678,-287.659 L 643.695,-289.108 L 643.78,-290.603 L 643.933,-292.112 L 644.155,-293.604 L 644.444,-295.047 L 644.797,-296.41 L 645.21,-297.666 L 645.677,-298.787 L 646.191,-299.749 L 646.746,-300.534 L 647.332,-301.123 L 647.94,-301.505 L 648.561,-301.671 L 649.184,-301.619 L 649.8,-301.349 L 650.399,-300.866 L 650.971,-300.181 L 651.508,-299.309 L 652.001,-298.268 L 652.443,-297.08 L 652.827,-295.769 L 653.15,-294.364 L 653.407,-292.893 L 653.596,-291.389 L 653.716,-289.883 L 653.768,-288.406 L 653.754,-286.99 L 653.677,-285.664 L 653.543,-284.457 L 653.356,-283.393 L 653.125,-282.496 L 652.857,-281.784 L 652.561,-281.273 L 652.246,-280.972 L 651.923,-280.889 L 651.601,-281.024 L 651.29,-281.376 L 651,-281.937 L 650.74,-282.695 L 650.518,-283.634 L 650.344,-284.734 L 650.222,-285.972 L 650.16,-287.322 L 650.162,-288.755 L 650.23,-290.242 L 650.367,-291.751 L 650.572,-293.25 L 650.845,-294.707 L 651.183,-296.092 L 651.582,-297.376 L 652.037,-298.532 L 652.541,-299.534 L 653.086,-300.363 L 653.666,-301 L 654.27,-301.433 L 654.888,-301.652 L 655.512,-301.652 L 656.13,-301.433 L 656.734,-301 L 657.314,-300.363 L 657.859,-299.534 L 658.363,-298.532 L 658.818,-297.376 L 659.217,-296.092 L 659.555,-294.707 L 659.828,-293.25 L 660.033,-291.751 L 660.17,-290.242 L 660.238,-288.755 L 660.24,-287.322 L 660.178,-285.972 L 660.056,-284.734 L 659.882,-283.634 L 659.66,-282.695 L 659.4,-281.937 L 659.11,-281.376 L 658.799,-281.024 L 658.477,-280.889 L 658.154,-280.972 L 657.839,-281.273 L 657.543,-281.784 L 657.275,-282.496 L 657.044,-283.393 L 656.857,-284.457 L 656.723,-285.664 L 656.646,-286.99 L 656.632,-288.406 L 656.684,-289.883 L 656.804,-291.389 L 656.993,-292.893 L 657.25,-294.364 L 657.573,-295.769 L 657.957,-297.08 L 658.399,-298.268 L 658.892,-299.309 L 659.429,-300.181 L 660.001,-300.866 L 660.6,-301.349 L 661.216,-301.619 L 661.839,-301.671 L 662.46,-301.505 L 663.068,-301.123 L 663.654,-300.534 L 664.209,-299.749 L 664.723,-298.787 L 665.19,-297.666 L 665.603,-296.41 L 665.956,-295.047 L 666.245,-293.604 L 666.467,-292.112 L 666.62,-290.603 L 666.705,-289.108 L 666.722,-287.659 L 666.675,-286.286 L 666.567,-285.019 L 666.405,-283.883 L 666.194,-282.904 L 665.942,-282.101 L 665.658,-281.492 L 665.351,-281.089 L 665.031,-280.901 L 664.707,-280.932 L 664.389,-281.181 L 664.088,-281.643 L 663.812,-282.308 L 663.572,-283.162 L 663.374,-284.188 L 663.226,-285.363 L 663.135,-286.663 L 663.106,-288.06 L 663.141,-289.525 L 663.245,-291.027 L 663.418,-292.535 L 663.659,-294.016 L 663.966,-295.44 L 664.336,-296.776 L 664.765,-297.996 L 665.246,-299.075 L 665.773,-299.989 L 666.337,-300.72 L 666.931,-301.252 L 667.543,-301.574 L 668.166,-301.679 L 668.788,-301.565 L 669.4,-301.234 L 669.992,-300.693 L 670.555,-299.954 L 671.08,-299.033 L 671.56,-297.947 L 671.986,-296.722 L 672.354,-295.382 L 672.658,-293.955 L 672.896,-292.472 L 673.066,-290.964 L 673.167,-289.463 L 673.2,-288 L 691.2,-288" style="stroke:black;fill:none;stroke-width:1.3;stroke-dasharray:-;stroke-linecap:round;stroke-linejoin:round;" /><path d="M 691.1999999999999,-288.0 L 691.2,-262.44 M 700.2,-262.44 L 682.2,-262.44 M 700.2,-255.96 L 682.2,-255.96 M 691.2,-255.96 L 691.2,-230.4" style="stroke:black;fill:none;stroke-width:1.3;stroke-dasharray:-;stroke-linecap:round;stroke-linejoin:round;" /><path d="M 691.1999999999999,-230.4 L 691.2,-216 L 682.2,-216 L 700.2,-216 M 684.9,-211.68 L 697.5,-211.68 M 689.4,-207.36 L 693,-207.36" style="stroke:black;fill:none;stroke-width:1.3;stroke-dasharray:-;stroke-linecap:round;stroke-linejoin:round;" /><path d="M 608.4,-252.0 L 613.8,-252 L 619.2,-252" style="stroke:black;fill:none;stroke-width:1.3;stroke-dasharray:-;stroke-linecap:round;stroke-linejoin:round;" /><path d="M 619.1999999999999,-252.0 L 619.2,-235.8 L 619.2,-219.6" style="stroke:black;fill:none;stroke-width:1.3;stroke-dasharray:-;stroke-linecap:round;stroke-linejoin:round;" /><path d="M 619.1999999999999,-219.6 L 648,-219.6 L 676.8,-219.6" style="stroke:black;fill:none;stroke-width:1.3;stroke-dasharray:-;stroke-linecap:round;stroke-linejoin:round;" /><path d="M 676.8000000000001,-219.6 L 676.8,-253.8 L 676.8,-288" style="stroke:black;fill:none;stroke-width:1.3;stroke-dasharray:-;stroke-linecap:round;stroke-linejoin:round;" /><path d="M 547.1999999999999,-216.0 L 547.2,-210.6 L 547.2,-205.2" style="stroke:black;fill:none;stroke-width:1.3;stroke-dasharray:-;stroke-linecap:round;stroke-linejoin:round;" /><path d="M 547.1999999999999,-205.20000000000002 L 547.2,-190.8 L 538.2,-190.8 L 556.2,-190.8 M 540.9,-186.48 L 553.5,-186.48 M 545.4,-182.16 L 549,-182.16" style="stroke:black;fill:none;stroke-width:1.3;stroke-dasharray:-;stroke-linecap:round;stroke-linejoin:round;" /><path d="M 720.0,-360.0 L 828,-360 L 936,-360" style="stroke:black;fill:none;stroke-width:1.3;stroke-dasharray:-;stroke-linecap:round;stroke-linejoin:round;" /><path d="M 936.0,-360.0 L 936,-342 L 936,-324" style="stroke:black;fill:none;stroke-width:1.3;stroke-dasharray:-;stroke-linecap:round;stroke-linejoin:round;" /><path d="M 936.0,-270.0 L 936,-285 L 912,-285 L 912,-309 L 936,-309 L 936,-324" style="stroke:black;fill:none;stroke-width:1.3;stroke-dasharray:-;stroke-linecap:round;stroke-linejoin:round;" /><path d="M 906.0,-285.0 L 906,-309" style="stroke:black;fill:none;stroke-width:1.3;stroke-dasharray:-;stroke-linecap:round;stroke-linejoin:round;" /><path d="M 886.8,-297.0 L 897.6,-297" style="stroke:black;fill:none;stroke-width:1.3;stroke-dasharray:-;stroke-linecap:round;stroke-linejoin:round;" /><path d="M 813.6,-297.0 L 850.2,-297 L 886.8,-297" style="stroke:black;fill:none;stroke-width:1.3;stroke-dasharray:-;stroke-linecap:round;stroke-linejoin:round;" /><path d="M 813.6,-297.0 L 813.6,-322.2 M 804.6,-334.8 L 822.6,-334.8 M 813.6,-334.8 L 813.6,-360" style="stroke:black;fill:none;stroke-width:1.3;stroke-dasharray:-;stroke-linecap:round;stroke-linejoin:round;" /><path d="M 804.6,-334.8 L 801,-338.4" style="stroke:black;fill:none;stroke-width:1.3;stroke-dasharray:-;stroke-linecap:round;stroke-linejoin:round;" /><path d="M 822.6,-334.8 L 826.2,-331.2" style="stroke:black;fill:none;stroke-width:1.3;stroke-dasharray:-;stroke-linecap:round;stroke-linejoin:round;" /><path d="M 856.8000000000001,-297.0 L 856.8,-310.5 L 847.8,-313.5 L 865.8,-319.5 L 847.8,-325.5 L 865.8,-331.5 L 847.8,-337.5 L 865.8,-343.5 L 856.8,-346.5 L 856.8,-360" style="stroke:black;fill:none;stroke-width:1.3;stroke-dasharray:-;stroke-linecap:round;stroke-linejoin:round;" /><path d="M 856.8000000000001,-297.0 L 856.8,-275.4 L 865.8,-272.4 L 847.8,-266.4 L 865.8,-260.4 L 847.8,-254.4 L 865.8,-248.4 L 847.8,-242.4 L 856.8,-239.4 L 856.8,-217.8" style="stroke:black;fill:none;stroke-width:1.3;stroke-dasharray:-;stroke-linecap:round;stroke-linejoin:round;" /><path d="M 856.8000000000001,-163.79999999999998 L 856.8,-178.8 L 832.8,-178.8 L 832.8,-202.8 L 856.8,-202.8 L 856.8,-217.8" style="stroke:black;fill:none;stroke-width:1.3;stroke-dasharray:-;stroke-linecap:round;stroke-linejoin:round;" /><path d="M 826.8000000000001,-178.8 L 826.8,-202.8" style="stroke:black;fill:none;stroke-width:1.3;stroke-dasharray:-;stroke-linecap:round;stroke-linejoin:round;" /><path d="M 807.6,-190.79999999999998 L 826.8,-190.8" style="stroke:black;fill:none;stroke-width:1.3;stroke-dasharray:-;stroke-linecap:round;stroke-linejoin:round;" /><path d="M 856.8000000000001,-163.79999999999998 L 856.8,-158.4 L 856.8,-153" style="stroke:black;fill:none;stroke-width:1.3;stroke-dasharray:-;stroke-linecap:round;stroke-linejoin:round;" /><path d="M 856.8000000000001,-153.0 L 856.8,-138.6 L 847.8,-138.6 L 865.8,-138.6 M 850.5,-134.28 L 863.1,-134.28 M 855,-129.96 L 858.6,-129.96" style="stroke:black;fill:none;stroke-width:1.3;stroke-dasharray:-;stroke-linecap:round;stroke-linejoin:round;" /><path d="M 807.6,-190.79999999999998 L 796.8,-190.8 L 786,-190.8" style="stroke:black;fill:none;stroke-width:1.3;stroke-dasharray:-;stroke-linecap:round;stroke-linejoin:round;" /><path d="M 936.0,-270.0 L 936,-252 L 936,-234" style="stroke:black;fill:none;stroke-width:1.3;stroke-dasharray:-;stroke-linecap:round;stroke-linejoin:round;" /><path d="M 885.6,-297.0 L 885.6,-283.5 L 894.6,-280.5 L 876.6,-274.5 L 894.6,-268.5 L 876.6,-262.5 L 894.6,-256.5 L 876.6,-250.5 L 885.6,-247.5 L 885.6,-234" style="stroke:black;fill:none;stroke-width:1.3;stroke-dasharray:-;stroke-linecap:round;stroke-linejoin:round;" /><path d="M 885.6,-234.0 L 907.56,-234 M 907.56,-243 L 907.56,-225 M 914.04,-243 L 914.04,-225 M 914.04,-234 L 936,-234" style="stroke:black;fill:none;stroke-width:1.3;stroke-dasharray:-;stroke-linecap:round;stroke-linejoin:round;" /><path d="M 936.0,-234.0 L 1004.4,-234 L 1072.8,-234" style="stroke:black;fill:none;stroke-width:1.3;stroke-dasharray:-;stroke-linecap:round;stroke-linejoin:round;" /><path d="M 979.1999999999999,-234.0 L 979.2,-201.24 M 988.2,-201.24 L 970.2,-201.24 M 988.2,-194.76 L 970.2,-194.76 M 979.2,-194.76 L 979.2,-162" style="stroke:black;fill:none;stroke-width:1.3;stroke-dasharray:-;stroke-linecap:round;stroke-linejoin:round;" /><path d="M 979.1999999999999,-162.0 L 979.2,-147.6 L 970.2,-147.6 L 988.2,-147.6 M 972.9,-143.28 L 985.5,-143.28 M 977.4,-138.96 L 981,-138.96" style="stroke:black;fill:none;stroke-width:1.3;stroke-dasharray:-;stroke-linecap:round;stroke-linejoin:round;" /><path d="M 1029.6000000000001,-234.0 L 1029.6,-210.6 M 1029.6,-185.4 L 1029.6,-162" style="stroke:black;fill:none;stroke-width:1.3;stroke-dasharray:-;stroke-linecap:round;stroke-linejoin:round;" /><path d="M 1020.6,-194.4 L 1020.6,-198 L 1038.6,-198 L 1038.6,-201.6" style="stroke:black;fill:none;stroke-width:1.3;stroke-dasharray:-;stroke-linecap:round;stroke-linejoin:round;" /><path d="M 1029.6000000000001,-162.0 L 1029.6,-147.6 L 1020.6,-147.6 L 1038.6,-147.6 M 1023.3,-143.28 L 1035.9,-143.28 M 1027.8,-138.96 L 1031.4,-138.96" style="stroke:black;fill:none;stroke-width:1.3;stroke-dasharray:-;stroke-linecap:round;stroke-linejoin:round;" /><text x="-5.3999999999999995" y="-373.59999999999997" dominant-baseline="central" fill="black" font-size="10" font-family="IPAGothic, sans-serif" text-anchor="end"><tspan x="-5.3999999999999995" dy="10">J1 VBUS</tspan></text><text x="21.599999999999998" y="-391.59999999999997" dominant-baseline="central" fill="black" font-size="10" font-family="IPAGothic, sans-serif" text-anchor="start"><tspan x="21.599999999999998" dy="10">F1 5A</tspan></text><text x="82.80000000000001" y="-388.0" dominant-baseline="central" fill="black" font-size="10" font-family="IPAGothic, sans-serif" text-anchor="start"><tspan x="82.80000000000001" dy="10">VBUS</tspan></text><text x="86.39999999999999" y="-333.90000000000003" dominant-baseline="central" fill="black" font-size="9" font-family="IPAGothic, sans-serif" text-anchor="end"><tspan x="86.39999999999999" dy="9">D1</tspan><tspan x="86.39999999999999" dy="9">SMBJ22A</tspan></text><text x="149.39999999999998" y="-333.90000000000003" dominant-baseline="central" fill="black" font-size="9" font-family="IPAGothic, sans-serif" text-anchor="start"><tspan x="149.39999999999998" dy="9">C1 4.7µF</tspan><tspan x="149.39999999999998" dy="9">C2 100nF</tspan></text><text x="207.0" y="-197.60000000000002" dominant-baseline="central" fill="black" font-size="14" font-family="IPAGothic, sans-serif" text-anchor="start"><tspan x="207.0" dy="14">CC1</tspan></text><text x="207.0" y="-168.8" dominant-baseline="central" fill="black" font-size="14" font-family="IPAGothic, sans-serif" text-anchor="start"><tspan x="207.0" dy="14">CC2</tspan></text><text x="207.0" y="-140.0" dominant-baseline="central" fill="black" font-size="14" font-family="IPAGothic, sans-serif" text-anchor="start"><tspan x="207.0" dy="14">DP</tspan></text><text x="207.0" y="-111.2" dominant-baseline="central" fill="black" font-size="14" font-family="IPAGothic, sans-serif" text-anchor="start"><tspan x="207.0" dy="14">DM</tspan></text><text x="325.8" y="-197.60000000000002" dominant-baseline="central" fill="black" font-size="14" font-family="IPAGothic, sans-serif" text-anchor="end"><tspan x="325.8" dy="14">CFG1</tspan></text><text x="325.8" y="-168.8" dominant-baseline="central" fill="black" font-size="14" font-family="IPAGothic, sans-serif" text-anchor="end"><tspan x="325.8" dy="14">CFG2</tspan></text><text x="325.8" y="-140.0" dominant-baseline="central" fill="black" font-size="14" font-family="IPAGothic, sans-serif" text-anchor="end"><tspan x="325.8" dy="14">CFG3</tspan></text><text x="325.8" y="-111.2" dominant-baseline="central" fill="black" font-size="14" font-family="IPAGothic, sans-serif" text-anchor="end"><tspan x="325.8" dy="14">PG</tspan></text><text x="252.0" y="-213.8" dominant-baseline="hanging" fill="black" font-size="14" font-family="IPAGothic, sans-serif" text-anchor="middle"><tspan x="252.0" dy="14">VDD</tspan></text><text x="280.8" y="-213.8" dominant-baseline="hanging" fill="black" font-size="14" font-family="IPAGothic, sans-serif" text-anchor="middle"><tspan x="280.8" dy="14">VBUS</tspan></text><text x="266.40000000000003" y="-95.00000000000001" dominant-baseline="ideographic" fill="black" font-size="14" font-family="IPAGothic, sans-serif" text-anchor="middle"><tspan x="266.40000000000003" dy="14">GND</tspan></text><text x="234.0" y="-149.70000000000002" dominant-baseline="central" fill="black" font-size="11" font-family="IPAGothic, sans-serif" text-anchor="start"><tspan x="234.0" dy="11">U1</tspan><tspan x="234.0" dy="11">CH224K</tspan></text><text x="244.79999999999998" y="-323.09999999999997" dominant-baseline="central" fill="black" font-size="9" font-family="IPAGothic, sans-serif" text-anchor="end"><tspan x="244.79999999999998" dy="9">R1 1kΩ</tspan><tspan x="244.79999999999998" dy="9">0.75W</tspan></text><text x="261.0" y="-262.8" dominant-baseline="central" fill="black" font-size="9" font-family="IPAGothic, sans-serif" text-anchor="start"><tspan x="261.0" dy="9">VDD_PD</tspan></text><text x="190.8" y="-289.8" dominant-baseline="central" fill="black" font-size="9" font-family="IPAGothic, sans-serif" text-anchor="start"><tspan x="190.8" dy="9">C3 1µF</tspan></text><text x="288.00000000000006" y="-307.79999999999995" dominant-baseline="central" fill="black" font-size="9" font-family="IPAGothic, sans-serif" text-anchor="start"><tspan x="288.00000000000006" dy="9">R66 0Ω</tspan></text><text x="140.39999999999998" y="-189.00000000000003" dominant-baseline="central" fill="black" font-size="9" font-family="IPAGothic, sans-serif" text-anchor="end"><tspan x="140.39999999999998" dy="9">J1 CC1</tspan></text><text x="140.39999999999998" y="-160.20000000000005" dominant-baseline="central" fill="black" font-size="9" font-family="IPAGothic, sans-serif" text-anchor="end"><tspan x="140.39999999999998" dy="9">J1 CC2</tspan></text><text x="140.39999999999998" y="-131.4" dominant-baseline="central" fill="black" font-size="9" font-family="IPAGothic, sans-serif" text-anchor="end"><tspan x="140.39999999999998" dy="9">J1 D+</tspan></text><text x="140.39999999999998" y="-102.60000000000001" dominant-baseline="central" fill="black" font-size="9" font-family="IPAGothic, sans-serif" text-anchor="end"><tspan x="140.39999999999998" dy="9">J1 D−</tspan></text><text x="392.4" y="-196.20000000000002" dominant-baseline="central" fill="black" font-size="9" font-family="IPAGothic, sans-serif" text-anchor="start"><tspan x="392.4" dy="9">R5 100Ω → PB5</tspan></text><text x="392.4" y="-167.4" dominant-baseline="central" fill="black" font-size="9" font-family="IPAGothic, sans-serif" text-anchor="start"><tspan x="392.4" dy="9">R6 100Ω → PB7</tspan></text><text x="392.4" y="-138.60000000000002" dominant-baseline="central" fill="black" font-size="9" font-family="IPAGothic, sans-serif" text-anchor="start"><tspan x="392.4" dy="9">R7 100Ω → PA6</tspan></text><text x="392.4" y="-109.80000000000001" dominant-baseline="central" fill="black" font-size="9" font-family="IPAGothic, sans-serif" text-anchor="start"><tspan x="392.4" dy="9">PD_PG → PB4  (R9 10k↑+3V3, D2/R10 LED)</tspan></text><text x="198.0" y="-20.70000000000002" dominant-baseline="central" fill="black" font-size="9" font-family="IPAGothic, sans-serif" text-anchor="start"><tspan x="198.0" dy="9">オプションB: U1B CH221K (SOT-23-6) — CFG は R8 で VDD_PD へ (100k: 15V)</tspan><tspan x="198.0" dy="9">CFG を VBUS に接続しないこと (CFG 耐圧 6.5V)</tspan></text><text x="509.40000000000003" y="-302.0" dominant-baseline="central" fill="black" font-size="14" font-family="IPAGothic, sans-serif" text-anchor="start"><tspan x="509.40000000000003" dy="14">VIN</tspan></text><text x="509.40000000000003" y="-266.0" dominant-baseline="central" fill="black" font-size="14" font-family="IPAGothic, sans-serif" text-anchor="start"><tspan x="509.40000000000003" dy="14">EN</tspan></text><text x="585.0" y="-302.0" dominant-baseline="central" fill="black" font-size="14" font-family="IPAGothic, sans-serif" text-anchor="end"><tspan x="585.0" dy="14">SW</tspan></text><text x="585.0" y="-266.0" dominant-baseline="central" fill="black" font-size="14" font-family="IPAGothic, sans-serif" text-anchor="end"><tspan x="585.0" dy="14">FB</tspan></text><text x="547.1999999999999" y="-314.59999999999997" dominant-baseline="hanging" fill="black" font-size="14" font-family="IPAGothic, sans-serif" text-anchor="middle"><tspan x="547.1999999999999" dy="14">BST</tspan></text><text x="547.1999999999999" y="-253.4" dominant-baseline="ideographic" fill="black" font-size="14" font-family="IPAGothic, sans-serif" text-anchor="middle"><tspan x="547.1999999999999" dy="14">GND</tspan></text><text x="518.4" y="-279.9" dominant-baseline="central" fill="black" font-size="9" font-family="IPAGothic, sans-serif" text-anchor="start"><tspan x="518.4" dy="9">U2</tspan><tspan x="518.4" dy="9">AP63203WU</tspan></text><text x="486.0" y="-251.0" dominant-baseline="central" fill="black" font-size="8" font-family="IPAGothic, sans-serif" text-anchor="end"><tspan x="486.0" dy="8">EN: R11 100k→VIN</tspan></text><text x="556.1999999999999" y="-344.59999999999997" dominant-baseline="central" fill="black" font-size="8" font-family="IPAGothic, sans-serif" text-anchor="start"><tspan x="556.1999999999999" dy="8">BST: C5 100nF→SW</tspan></text><text x="633.6" y="-318.59999999999997" dominant-baseline="central" fill="black" font-size="9" font-family="IPAGothic, sans-serif" text-anchor="start"><tspan x="633.6" dy="9">L1 4.7µH</tspan></text><text x="698.4000000000001" y="-314.2" dominant-baseline="central" fill="black" font-size="10" font-family="IPAGothic, sans-serif" text-anchor="start"><tspan x="698.4000000000001" dy="10">+3V3</tspan></text><text x="703.8000000000001" y="-269.1" dominant-baseline="central" fill="black" font-size="9" font-family="IPAGothic, sans-serif" text-anchor="start"><tspan x="703.8000000000001" dy="9">C6,C7</tspan><tspan x="703.8000000000001" dy="9">22µF×2</tspan></text><text x="950.4000000000001" y="-310.5" dominant-baseline="central" fill="black" font-size="9" font-family="IPAGothic, sans-serif" text-anchor="start"><tspan x="950.4000000000001" dy="9">Q1</tspan><tspan x="950.4000000000001" dy="9">AO4407A</tspan></text><text x="799.1999999999999" y="-342.90000000000003" dominant-baseline="central" fill="black" font-size="9" font-family="IPAGothic, sans-serif" text-anchor="end"><tspan x="799.1999999999999" dy="9">D3</tspan><tspan x="799.1999999999999" dy="9">12V</tspan></text><text x="860.4" y="-350.40000000000003" dominant-baseline="central" fill="black" font-size="8" font-family="IPAGothic, sans-serif" text-anchor="start"><tspan x="860.4" dy="8">R12</tspan><tspan x="860.4" dy="8">100k</tspan></text><text x="849.6" y="-267.3" dominant-baseline="central" fill="black" font-size="9" font-family="IPAGothic, sans-serif" text-anchor="end"><tspan x="849.6" dy="9">R13</tspan><tspan x="849.6" dy="9">10k</tspan></text><text x="871.2" y="-196.20000000000002" dominant-baseline="central" fill="black" font-size="9" font-family="IPAGothic, sans-serif" text-anchor="start"><tspan x="871.2" dy="9">Q2 2N7002</tspan></text><text x="775.1999999999999" y="-200.70000000000002" dominant-baseline="central" fill="black" font-size="9" font-family="IPAGothic, sans-serif" text-anchor="end"><tspan x="775.1999999999999" dy="9">PA10 LOAD_EN</tspan><tspan x="775.1999999999999" dy="9">(R15 100Ω, R16 100k↓)</tspan></text><text x="945.0" y="-254.0" dominant-baseline="central" fill="black" font-size="11" font-family="IPAGothic, sans-serif" text-anchor="start"><tspan x="945.0" dy="11">VM</tspan></text><text x="896.4000000000001" y="-273.0" dominant-baseline="central" fill="black" font-size="8" font-family="IPAGothic, sans-serif" text-anchor="start"><tspan x="896.4000000000001" dy="8">R14</tspan><tspan x="896.4000000000001" dy="8">1k</tspan></text><text x="892.8000000000002" y="-225.79999999999998" dominant-baseline="central" fill="black" font-size="8" font-family="IPAGothic, sans-serif" text-anchor="start"><tspan x="892.8000000000002" dy="8">C8 470nF</tspan></text><text x="985.68" y="-223.016" dominant-baseline="central" fill="black" font-size="14" font-family="IPAGothic, sans-serif" text-anchor="middle"><tspan x="985.68" dy="14">+</tspan></text><text x="991.8000000000001" y="-206.4" dominant-baseline="central" fill="black" font-size="8" font-family="IPAGothic, sans-serif" text-anchor="start"><tspan x="991.8000000000001" dy="8">C9 470µF</tspan><tspan x="991.8000000000001" dy="8">C10,C11 10µF</tspan></text><text x="1042.2" y="-206.4" dominant-baseline="central" fill="black" font-size="8" font-family="IPAGothic, sans-serif" text-anchor="start"><tspan x="1042.2" dy="8">D4</tspan><tspan x="1042.2" dy="8">SMBJ24A</tspan></text><text x="1083.6000000000001" y="-250.4" dominant-baseline="central" fill="black" font-size="10" font-family="IPAGothic, sans-serif" text-anchor="start"><tspan x="1083.6000000000001" dy="10">→ Hブリッジ</tspan><tspan x="1083.6000000000001" dy="10">→ VGD 生成</tspan><tspan x="1083.6000000000001" dy="10">→ R17/R18 → PA4</tspan></text><circle cx="0" cy="-360" r="2.7" style="stroke:black;fill:white;stroke-width:1.3;stroke-dasharray:-;" /><circle cx="93.6" cy="-360" r="2.7" style="stroke:black;fill:black;stroke-width:1.3;stroke-dasharray:-;" /><circle cx="136.8" cy="-360" r="2.7" style="stroke:black;fill:black;stroke-width:1.3;stroke-dasharray:-;" /><circle cx="252" cy="-360" r="2.7" style="stroke:black;fill:black;stroke-width:1.3;stroke-dasharray:-;" /><circle cx="252" cy="-266.4" r="2.7" style="stroke:black;fill:black;stroke-width:1.3;stroke-dasharray:-;" /><circle cx="280.8" cy="-360" r="2.7" style="stroke:black;fill:black;stroke-width:1.3;stroke-dasharray:-;" /><circle cx="151.2" cy="-183.6" r="2.7" style="stroke:black;fill:white;stroke-width:1.3;stroke-dasharray:-;" /><circle cx="151.2" cy="-154.8" r="2.7" style="stroke:black;fill:white;stroke-width:1.3;stroke-dasharray:-;" /><circle cx="151.2" cy="-126" r="2.7" style="stroke:black;fill:white;stroke-width:1.3;stroke-dasharray:-;" /><circle cx="151.2" cy="-97.2" r="2.7" style="stroke:black;fill:white;stroke-width:1.3;stroke-dasharray:-;" /><circle cx="381.6" cy="-183.6" r="2.7" style="stroke:black;fill:white;stroke-width:1.3;stroke-dasharray:-;" /><circle cx="381.6" cy="-154.8" r="2.7" style="stroke:black;fill:white;stroke-width:1.3;stroke-dasharray:-;" /><circle cx="381.6" cy="-126" r="2.7" style="stroke:black;fill:white;stroke-width:1.3;stroke-dasharray:-;" /><circle cx="381.6" cy="-97.2" r="2.7" style="stroke:black;fill:white;stroke-width:1.3;stroke-dasharray:-;" /><circle cx="453.6" cy="-360" r="2.7" style="stroke:black;fill:black;stroke-width:1.3;stroke-dasharray:-;" /><circle cx="691.2" cy="-288" r="2.7" style="stroke:black;fill:black;stroke-width:1.3;stroke-dasharray:-;" /><circle cx="676.8" cy="-288" r="2.7" style="stroke:black;fill:black;stroke-width:1.3;stroke-dasharray:-;" /><circle cx="813.6" cy="-360" r="2.7" style="stroke:black;fill:black;stroke-width:1.3;stroke-dasharray:-;" /><circle cx="856.8" cy="-360" r="2.7" style="stroke:black;fill:black;stroke-width:1.3;stroke-dasharray:-;" /><circle cx="856.8" cy="-297" r="2.7" style="stroke:black;fill:black;stroke-width:1.3;stroke-dasharray:-;" /><circle cx="786" cy="-190.8" r="2.7" style="stroke:black;fill:white;stroke-width:1.3;stroke-dasharray:-;" /><circle cx="936" cy="-234" r="2.7" style="stroke:black;fill:black;stroke-width:1.3;stroke-dasharray:-;" /><circle cx="885.6" cy="-297" r="2.7" style="stroke:black;fill:black;stroke-width:1.3;stroke-dasharray:-;" /><circle cx="979.2" cy="-234" r="2.7" style="stroke:black;fill:black;stroke-width:1.3;stroke-dasharray:-;" /><circle cx="1029.6" cy="-234" r="2.7" style="stroke:black;fill:black;stroke-width:1.3;stroke-dasharray:-;" /><circle cx="1072.8" cy="-234" r="2.7" style="stroke:black;fill:white;stroke-width:1.3;stroke-dasharray:-;" /></svg>